<svg xmlns="http://www.w3.org/2000/svg" viewBox="0 0 129.05 151.82"><defs><style>.cls-1{fill:#af3354;}.cls-2{fill:#461438;}.cls-3{fill:#ff282d;}.cls-4{fill:#23e0a8;}</style></defs><title>github_illustration</title><g id="Layer_2" data-name="Layer 2"><g id="Layer_1-2" data-name="Layer 1"><path class="cls-1" d="M128.64,72.42c-.47-11-8.84-20.16-17.68-27.69S92.2,30.11,87.17,20.2c-2.38-4.69-3.77-10.13-8.31-13.35-5.78-4.1-14.46-3.15-22.12-2C46.4,6.46,35.42,8.34,27.48,14.58c-5.87,4.62-9.29,11-12.16,17.38-2.58,5.69-4.88,11.58-5.21,17.58-.45,8,2.52,16.25-1.32,23.7-1.46,2.82-3.8,5.27-5.45,8C0,86.79-.3,93.15.17,99.17c.71,9,3.12,18,8.3,25.68a40.06,40.06,0,0,0,23.24,16.39,68.81,68.81,0,0,0,13.22,1.68c20.52,1.05,42.26-1.09,60.45-10.59,5.78-3,11.33-7,14-12.32,1.15-2.35,1.7-4.88,3-7.16,1-1.74,2.51-3.27,3.49-5a20.6,20.6,0,0,0,2-7.31C129,93,130,85.25,127.55,78.18"/><path class="cls-2" d="M32.5,105.32c-2.83,2.64-7,3.88-9,7.16-2.6,4.15-.65,9.72,2.37,13.59,2,2.51,4.37,4.72,6.43,7.15a9,9,0,0,0-4.44,1.49,6,6,0,0,0-2.68,5.17,2.3,2.3,0,0,0,.56,1.43,3,3,0,0,0,.86.52,23.79,23.79,0,0,0,10.5,2c2.39-.1,5-.68,6.48-2.5a5.19,5.19,0,0,0,1.05-4.5,3.34,3.34,0,0,0-.51-1.1l.13,0L39.66,127c-1.59-3-3.23-6.29-2.85-9.69.31-2.83,2-5.29,3.59-7.63a5.53,5.53,0,0,1,2.15-2.14,5.46,5.46,0,0,1,2.45-.26l24.45,1.07a93.59,93.59,0,0,1,15.41,1.54,47,47,0,0,1,9.17,3c2.38,1,3.13,3.23,3.54,5.7.31,1.86.51,3.73.68,5.61A12.53,12.53,0,0,1,96.53,132a19,19,0,0,1-2.85,3.36c-1.76,1.76-3.54,3.49-5.37,5.18-1.09,1-2.79,3.15-1.37,4.63a2.77,2.77,0,0,0,1.62.64l.66.09-.77.49c2.47.5,4,3.1,6.26,4.28a9.17,9.17,0,0,0,4.47.88,10.77,10.77,0,0,0,4.45-.87,5.61,5.61,0,0,0,3.08-7.27,6.79,6.79,0,0,0-5.47-4.39,13,13,0,0,1,2.17-9.54c1.19-1.62,2.78-2.92,3.65-4.76,1.55-3.3,7.51-5.62,4.89-8.33s-6.21-4.21-9.7-5.65c2.59-.41,5.31-.88,7.33-2.54a14.13,14.13,0,0,0,3.24-4.43c10.89-20.21,16.1-44.35,10-66.5a9.1,9.1,0,0,0-2.28-4.48,9.54,9.54,0,0,0-4.14-1.8,370.09,370.09,0,0,0-83-11.24l-5,3c-1.95.26-2.6,2.72-2.8,4.68q-1.3,13-2.62,26a120.69,120.69,0,0,0-.9,18c.14,2.88.62,5.64.54,8.5a36.37,36.37,0,0,0,1.26,8.92,11.68,11.68,0,0,0,1.65,4.39,9.69,9.69,0,0,0,2.37,2.14c3.39,2.32,7.55,3.84,11.63,3.24"/><path class="cls-3" d="M120.1,107a6.07,6.07,0,0,0,.06-2.12c0-.28-.08-.56-.13-.84l0-.14c-.11-.63-.27-1.24-.41-1.82-.06-.21-.1-.4-.15-.58a1.28,1.28,0,0,0-1.26-1h0a1.27,1.27,0,0,0-1.16.86,21.43,21.43,0,0,0-.56,2.35c-.09.48-.18,1-.29,1.43,0,.11-.09.27-.15.42a1.77,1.77,0,0,1-.2.38,3.25,3.25,0,0,1-.41.56,10.12,10.12,0,0,1-1.24.92c-.41.21-.89.4-1.34.59l-.85.36a11.33,11.33,0,0,0-1.88,1,1.3,1.3,0,0,0-.55,1.31,1.33,1.33,0,0,0,.83,1,1.19,1.19,0,0,0,.4.07l.72,0h.1c.43,0,1,.06,1.5.07h.15a11.42,11.42,0,0,0,1.34-.07,7.21,7.21,0,0,0,3.71-1.62A5.78,5.78,0,0,0,120.1,107Z"/><path class="cls-3" d="M128.31,110.87a10.17,10.17,0,0,0-1.25-4.1,26,26,0,0,0-1.73-3,1.27,1.27,0,0,0-1-.56h-.12a1.33,1.33,0,0,0-1,.69,1.59,1.59,0,0,0-.17,1c.13.62.23,1.21.32,1.69s.2,1.07.31,1.6.21,1.07.3,1.6a7,7,0,0,1,.09,1.07,12.18,12.18,0,0,1-.13,1.28c-.06.18-.12.37-.19.55s-.19.33-.3.49-.23.24-.34.34a7.38,7.38,0,0,1-1.31.67c-.28.1-.6.16-.93.24l-.19,0a6.29,6.29,0,0,1-.83.13l-.41,0a8.74,8.74,0,0,1-1.13-.09H118a1.39,1.39,0,0,0-1.2,1.24,1.43,1.43,0,0,0,.55,1.38,7.73,7.73,0,0,0,1.09.85,4.52,4.52,0,0,0,.54.3,7.07,7.07,0,0,0,.82.3,11.21,11.21,0,0,0,1.35.31,4.9,4.9,0,0,0,.77.06,7.63,7.63,0,0,0,2.36-.44,5.85,5.85,0,0,0,3.17-2.8,8.11,8.11,0,0,0,.84-2.55,6.26,6.26,0,0,0,.09-1v-.12C128.34,111.71,128.33,111.32,128.31,110.87Z"/><path class="cls-3" d="M15.09,18a21,21,0,0,0,.73-2.31c.13-.47.26-.95.41-1.4.05-.1.11-.26.18-.41a2.53,2.53,0,0,1,.23-.36A4.07,4.07,0,0,1,17.1,13a9.09,9.09,0,0,1,1.3-.81c.43-.18.92-.34,1.39-.49l.88-.29a12.26,12.26,0,0,0,1.95-.86,1.29,1.29,0,0,0,.64-1.27,1.32,1.32,0,0,0-.75-1,1.19,1.19,0,0,0-.38-.1L21.4,8l-.09,0c-.43-.06-1-.13-1.49-.18a11.13,11.13,0,0,0-1.13-.06h-.36A7.24,7.24,0,0,0,14.5,9.07a5.8,5.8,0,0,0-2.09,3,6.1,6.1,0,0,0-.22,2.11q0,.42.06.84v.14c.07.64.17,1.25.27,1.85,0,.22.07.4.1.59a1.28,1.28,0,0,0,1.23,1.09h0A1.32,1.32,0,0,0,15.09,18Z"/><path class="cls-3" d="M12.51,4.61a5.44,5.44,0,0,1,.84-.06h.41a9.72,9.72,0,0,1,1.12.19l.25,0a1.4,1.4,0,0,0,1.32-1.14A1.46,1.46,0,0,0,16,2.18a9.45,9.45,0,0,0-1-.93,5.65,5.65,0,0,0-.51-.33,4.94,4.94,0,0,0-.8-.37A10.34,10.34,0,0,0,12.36.14,4.78,4.78,0,0,0,11.15,0,8.52,8.52,0,0,0,9.21.26,5.89,5.89,0,0,0,5.83,2.81a8.22,8.22,0,0,0-1,2.47,5.63,5.63,0,0,0-.16,1v.11A11.19,11.19,0,0,0,4.54,7.6a10.23,10.23,0,0,0,.92,4.18A26.11,26.11,0,0,0,7,14.94,1.25,1.25,0,0,0,8,15.59,1.34,1.34,0,0,0,9.14,15a1.61,1.61,0,0,0,.25-1c-.08-.62-.14-1.22-.19-1.7S9.09,11.17,9,10.64,8.9,9.55,8.85,9a7.72,7.72,0,0,1,0-1.07,11.42,11.42,0,0,1,.24-1.26c.07-.18.14-.36.22-.53a5.66,5.66,0,0,1,.34-.47A3.52,3.52,0,0,1,10,5.36a7.59,7.59,0,0,1,1.35-.56,9,9,0,0,1,1-.16Z"/><path class="cls-4" d="M103.69,106.32a9.53,9.53,0,0,0,1.52-.45,8.21,8.21,0,0,0,1.08-.51,9.11,9.11,0,0,0,2.3-1.69,10.83,10.83,0,0,0,1.83-2.57c.37-.7.69-1.42,1-2.15.62-1.51,1.2-3,1.71-4.58s1-3.33,1.44-5c.25-1,.49-1.91.68-2.87s.33-1.77.5-2.65c.3-1.61.6-3.21.83-4.83.47-3.35.82-6.72,1.17-10.09.18-1.66.35-3.31.39-5s.06-3.33.08-5,0-3.27.06-4.91,0-3.14,0-4.72c0-1.39-.08-2.82-.21-4.2s-.41-2.75-.52-4.13-.45-2.64-.58-4c-.11-1.11-.18-2.22-.24-3.33-.14-2.52.3-5.61-1-7.88a5.55,5.55,0,0,0-1.41-1.68,4.1,4.1,0,0,0-.47-.35,13.93,13.93,0,0,0-1.51-.85c-.69-.33-1.4-.63-2.1-.93s-1.3-.53-2-.77a27.41,27.41,0,0,0-2.69-.74c-.78-.18-1.56-.32-2.35-.44s-1.51-.26-2.27-.34l-2.13-.22L96,19.2c-3.33-.33-6.66-.67-10-.92-1.69-.13-3.38-.18-5.07-.31-.81-.06-1.61-.18-2.41-.28l-2.38-.32c-1.68-.24-3.36-.52-5-.68l-5.24-.52c-1.64-.16-3.28-.32-4.92-.43s-3.32-.18-5-.29-3.38-.35-5.06-.55-3.29-.45-4.93-.68-3.28-.33-4.92-.42-3.21-.1-4.81-.07c-1.83,0-3.67.16-5.49.36a25.08,25.08,0,0,0-5.18,1.25A39,39,0,0,0,22,16.83,17.47,17.47,0,0,0,20,17.93c-3.16,2.05-3.31,6.49-3.78,9.86a64.11,64.11,0,0,0-.83,11.13c.12,3.17-.3,6.16-.31,9.32,0,3.35,0,6.7-.09,10-.06,1.62-.1,3.24-.14,4.85s0,3.35-.1,5-.09,3.38-.07,5.07.1,3.66.19,5.49c.08,1.63.24,3.27.33,4.91s.14,3.16.31,4.73a13.6,13.6,0,0,0,.61,2.83,8.72,8.72,0,0,0,1.17,2.32A9.79,9.79,0,0,0,18.74,95a6.69,6.69,0,0,0,.89.7c.33.22.67.42,1,.61A11.67,11.67,0,0,0,23,97.44c1,.3,2,.54,3.08.76.76.17,1.51.34,2.28.49l.38.07a64.3,64.3,0,0,0-6.06,5c-.86.77-1.74,1.56-2.62,2.31s-1.94,1.55-3.24,2.46A4.55,4.55,0,0,0,15,114c.9,2.94,2.77,5.34,4.58,7.66l.77,1a21.74,21.74,0,0,1,2.91,4.63,19.33,19.33,0,0,1,1,3.12l-.69,0a8.11,8.11,0,0,0-6.6,2.77,4.73,4.73,0,0,0,.47,6.5c1.9,1.83,4.65,2.41,6.55,2.68a23.47,23.47,0,0,0,7.75-.2,16.25,16.25,0,0,0,7.1-2.86c2.25-1.79,2.54-4.4.78-7.18a12.91,12.91,0,0,0-.86-1.16c-.24-.3-.47-.58-.64-.84a5.08,5.08,0,0,1-.16-.55,4.81,4.81,0,0,0-.29-1A9.72,9.72,0,0,0,36,126.18a12,12,0,0,1-.78-.92c-.9-1.16-1.77-2.36-2.58-3.56a59.07,59.07,0,0,1-3.52-5.91,53.71,53.71,0,0,0,5.16-5.63,47.35,47.35,0,0,1,8.63-8.52,6.62,6.62,0,0,1,.71-.46,7.6,7.6,0,0,1,2.75-.75,10.41,10.41,0,0,1,2.62.15c1.63.13,3.26.25,4.88.47s3.33.53,5,.83,3.22.65,4.84.9c3.32.51,6.68.76,10,1.43,1.15.24,2.31.45,3.47.66.92.17,2.28.11,3.07.68a3.3,3.3,0,0,1,.77.89,26.62,26.62,0,0,0,2.2,2.76c.74.8,1.65,1.28,2.34,2.11a45.28,45.28,0,0,1,4.09,6.24,50.73,50.73,0,0,0,4.32,6.55,67.21,67.21,0,0,1-8.8,10.49,7.58,7.58,0,0,0-1.78,2.29l-.12.26a1.44,1.44,0,0,1-.44.65c-2.59,2.37-3.59,4.85-2.82,7,.85,2.36,3.21,3.77,5.64,4.94a21.89,21.89,0,0,0,7.31,2c.56,0,1.18.08,1.81.08,2.25,0,6.33-.35,8.29-2.67a4.56,4.56,0,0,0,1-3.89c-.66-3.88-5-5-6.36-5.28-.33-.06-.67-.1-1-.14a21.59,21.59,0,0,1,3.86-6.47c.65-.73,1.36-1.46,2-2.16a29.39,29.39,0,0,0,4.81-5.89c.6-1.06,1.85-3.28.67-5.49a10.21,10.21,0,0,0-2.15-2.49,11.94,11.94,0,0,1-1.07-1.06c-1-1.14-2-2.37-3-3.55s-1.91-2.38-2.93-3.53c-.7-.79-1.49-1.64-2.38-2.49.63,0,1.25,0,1.88,0A31.88,31.88,0,0,0,103.69,106.32Zm-82-83.23c.08-.26.17-.51.27-.76s.17-.23.25-.34.29-.22.44-.33a20,20,0,0,1,2.1-1c.8-.33,1.61-.64,2.43-.92.61-.18,1.23-.35,1.85-.5a21.56,21.56,0,0,1,2.41-.37c1.46-.18,2.94-.22,4.41-.28s3.14,0,4.71.11,3.28.22,4.9.46c3.33.49,6.65.95,10,1.27,1.65.16,3.32.18,5,.3s3.29.28,4.92.44l5.24.52c1.69.17,3.37.45,5.05.69l2.38.32c.8.1,1.6.22,2.41.28,1.69.13,3.38.19,5.07.31,2.76.19,5.5.47,8.25.75l1.76.18A81.25,81.25,0,0,1,105,25.5a26,26,0,0,1,3,1c.92.37,1.83.75,2.72,1.2a6,6,0,0,1,.66.46l.11.23a13,13,0,0,1,.25,2.4c0,.94,0,1.88,0,2.82,0,.38-.09.77-.13,1.16-2.52-.4-5-.81-7.57-1.24L100.58,33c-.78-.13-1.56-.3-2.33-.46l-5.06-1c-3.38-.67-6.81-1.11-10.22-1.56-1.68-.21-3.35-.47-5-.66s-3.32-.33-5-.52-3.36-.39-5-.63-3.36-.6-5-.95-3.15-.63-4.74-.84L55.61,26l-.72-.09-1.69-.13c-3.49-.26-7-.48-10.47-.49-1.77,0-3.55,0-5.32.06s-3.44.19-5.16.35c-.85.07-1.7.16-2.55.26s-1.61.23-2.41.34-1.72.25-2.59.33c-1,.09-2.07.14-3.1.2a1,1,0,0,0-.25.06.49.49,0,0,1,0-.12A17.25,17.25,0,0,1,21.67,23.09ZM31,106.41a41.58,41.58,0,0,1-6.64,6.75,2.5,2.5,0,0,0-.72,3,70.15,70.15,0,0,0,6.1,10.2c.56.79,1.16,1.58,1.77,2.36a10.69,10.69,0,0,0,.7.81,7.34,7.34,0,0,1,.92,1.15,1.8,1.8,0,0,1,.14.46,2.46,2.46,0,0,0,.09.39,4.41,4.41,0,0,0,1.11,1.87,8.64,8.64,0,0,1,1.16,1.71,1.12,1.12,0,0,1,.08.17,2.2,2.2,0,0,1-.42.29,14,14,0,0,1-4.86,1.65,18.89,18.89,0,0,1-3.18.28,19.72,19.72,0,0,1-2.3-.14,7.73,7.73,0,0,1-4-1.27,6.58,6.58,0,0,1,2.3-.69l.62,0c2.17,0,4.25,1,6.42.67a1.38,1.38,0,0,0,1.24-2.24c-.47-.9-1.46-1.51-1.91-2.29s-.61-2.5-.94-3.53a25.8,25.8,0,0,0-3.65-7.4c-.51-.69-1-1.37-1.54-2-.67-.85-1.35-1.73-2-2.62a16.38,16.38,0,0,1-1.41-2.42c0-.09-.09-.18-.13-.28a4.27,4.27,0,0,1-.29-.69l.05,0,.11-.07a71.28,71.28,0,0,0,6.3-5.16l1.82-1.6c2.6-2.25,5.42-4.52,8.69-5.37l.14,0A50,50,0,0,0,31,106.41Zm57.47.77c3.09,1.32,5.44,3.93,7.58,6.48l1.75,2.13a64.1,64.1,0,0,0,5.22,5.92l.17.17.17.16h0a3,3,0,0,1-.24.48,2.53,2.53,0,0,0-.13.22,14.92,14.92,0,0,1-1.69,2.37c-.83,1-1.76,1.94-2.65,2.87-.49.5-1,1-1.46,1.52a29.77,29.77,0,0,0-6.15,10.75,16.76,16.76,0,0,0-2.14.71,2.29,2.29,0,0,0-1.43,2.66,2.54,2.54,0,0,0,2.45,2.11,2.43,2.43,0,0,0,1-.2,10.37,10.37,0,0,1,4-.8,9.24,9.24,0,0,1,1,.06,5.51,5.51,0,0,1,3,1c.08.1.08.15.07.19h0s-.31.55-2.9.77c-.39,0-.79.05-1.19.05a16.94,16.94,0,0,1-4.12-.53,15.53,15.53,0,0,1-4.75-2l-.23-.14a4.51,4.51,0,0,1-1.14-.92,3.65,3.65,0,0,1,.67-.89l.28-.33c.17-.19.36-.37.57-.57s.41-.38.62-.6a4.77,4.77,0,0,0,.83-1.46c0-.12.09-.23.14-.35l.12-.28.23-.2h0A18,18,0,0,0,90,136.78l.53-.56a71.14,71.14,0,0,0,8.59-10.93,2.52,2.52,0,0,0-.17-3.06,42.06,42.06,0,0,1-5.51-7.8,48.17,48.17,0,0,0-5-7.3A.31.31,0,0,0,88.5,107.18Zm5.4-5.55-2.52-.23c-1.67-.14-3.34-.24-5-.34s-3.26-.35-4.88-.58-3.26-.57-4.89-.86-3.24-.64-4.87-.89c-3.32-.5-6.67-.76-10-1.42A89.65,89.65,0,0,0,52,95.76c-1.71-.16-3.42-.31-5.13-.41s-3.43-.14-5.14-.25c-1.32-.09-2.64-.18-4-.25s-2.76-.26-4.14-.44-2.6-.36-3.89-.58-2.49-.51-3.73-.78l-.89-.23c-.4-.12-.79-.25-1.18-.41a4.59,4.59,0,0,1-.5-.24,8,8,0,0,1-1-.62c-.25-.19-.49-.39-.73-.6a5,5,0,0,1-.46-.57,10.37,10.37,0,0,1-.45-1,18.68,18.68,0,0,1-.48-3.48c-.09-1.33-.16-2.66-.27-4s-.24-2.66-.32-4-.15-2.61-.21-3.91c-.07-3.15,0-6.3-.05-9.45,0-3.32,0-6.64-.11-10s-.33-6.94-.47-10.42A44.76,44.76,0,0,1,19,39q.15-1.36.33-2.73c.11-.81.27-1.62.45-2.42.08-.28.15-.57.25-.85s.32-.84.49-1.26.49-1.06.75-1.58l0-.06.09-.18a2.29,2.29,0,0,0,.7.06c2.06-.12,4.11-.27,6.16-.48,1.85-.18,3.71-.3,5.58-.4,1.62,0,3.24,0,4.86,0,.78,0,1.56.06,2.34.09s1.71.05,2.56.11c3.49.22,7,.58,10.45,1,.71.08,1.41.22,2.12.33s1.56.26,2.34.41c1.51.29,3,.6,4.51,1l-.22,0,10,1.67,5.3.61c1.71.2,3.42.49,5.13.72,3.42.46,6.83,1,10.22,1.65,1.68.34,3.36.7,5,1s3.46.63,5.19.93c3,.51,6,1,9,1.47,0,0,0,.08,0,.12.16.91.31,1.82.39,2.74.07.76.12,1.51.15,2.27.07,3.18,0,6.37,0,9.56s0,6.67-.14,10c-.07,1.69-.29,3.38-.46,5.06s-.35,3.36-.54,5-.39,3.34-.64,5-.57,3.31-.86,5c-.14.82-.3,1.62-.48,2.43-.24,1-.48,2-.74,2.92s-.64,2.15-1,3.21-.75,2.11-1.15,3.16-.73,1.82-1.17,2.7a9.8,9.8,0,0,1-.85,1.18,8.17,8.17,0,0,1-.79.64,9.67,9.67,0,0,1-1.17.56,12.37,12.37,0,0,1-2.28.29c-1.5,0-3,0-4.5-.07C95.62,101.74,94.76,101.71,93.9,101.63Z"/><path class="cls-4" d="M19.34,54.37v.21c0,.12,0,.24,0,.36C19.35,54.75,19.34,54.56,19.34,54.37Z"/><path class="cls-4" d="M34.82,23.92a2.21,2.21,0,1,0-2-2.42A2.22,2.22,0,0,0,34.82,23.92Z"/><path class="cls-4" d="M27.66,25.2a2.2,2.2,0,1,0-2-2.41A2.22,2.22,0,0,0,27.66,25.2Z"/><path class="cls-4" d="M42,24.2a2.2,2.2,0,1,0-2-2.41A2.22,2.22,0,0,0,42,24.2Z"/><path class="cls-4" d="M64.82,63.43A2.68,2.68,0,0,0,63,62.79c-1,0-2-.08-3-.13l-1.39-.07-1.3,0-.65,0-1.32-.07-.58,0c-1.8-.17-3.6-.35-5.32-.55l-1.12-.13-1.57-.19-.45-.05c-1-.11-2-.22-3-.26h-.07a2.75,2.75,0,0,0-1.85.81,2.55,2.55,0,0,0-.77,1.8,2.41,2.41,0,0,0,.85,1.84,2.7,2.7,0,0,0,1.76.63l.49,0c1.41.13,2.88.31,4.3.48l2,.25c2.53.29,4.8.47,6.91.54l3,.12.92,0,2,.08H63a2.74,2.74,0,0,0,1.86-.81,2.55,2.55,0,0,0,.77-1.8,2.26,2.26,0,0,0-.1-.69A2.34,2.34,0,0,0,64.82,63.43Z"/><path class="cls-4" d="M41.27,49.86a3.38,3.38,0,0,0,.14-1.28v-.09a3.41,3.41,0,0,0-.33-1.3A4.34,4.34,0,0,0,40,45.78c-.26-.26-.53-.49-.79-.71l-.48-.42c-.79-.72-1.57-1.48-2.34-2.21a59.54,59.54,0,0,0-5.15-4.59,2.69,2.69,0,0,0-1.34-.53h-.27a2.72,2.72,0,0,0-2.24,1.21,3,3,0,0,0,.58,4c.77.59,1.55,1.23,2.3,1.91.59.52,1.18,1.08,1.74,1.62l.42.4.81.77,1.26,1.21.18.16.51.48c-.29.28-.58.56-.88.83-.62.57-1.29,1.1-1.8,1.5l-.4.3c-1.15.9-2.34,1.82-3.53,2.69a2.88,2.88,0,0,0-1,2,3,3,0,0,0,.57,2.07A2.64,2.64,0,0,0,30,59.45h.15l.45,0h.16a2.73,2.73,0,0,0,1.23-.6c.87-.64,1.74-1.31,2.57-2l.27-.2.55-.43c.76-.58,1.55-1.17,2.28-1.85l.3-.27c.36-.33.74-.67,1.09-1.06l.25-.27a14.32,14.32,0,0,0,1.31-1.54,5.64,5.64,0,0,0,.5-.89A3.34,3.34,0,0,0,41.27,49.86Z"/></g></g></svg>